<!-- Generated by IcoMoon.io -->
<svg version="1.1" xmlns="http://www.w3.org/2000/svg" width="16" height="16" viewBox="0 0 16 16">
<path d="M15.788 13.105l-6-12c-0.338-0.677-1.030-1.105-1.788-1.105s-1.45 0.428-1.788 1.105l-6 12c-0.31 0.62-0.277 1.357 0.088 1.947s1.008 0.948 1.701 0.948h11.998c0.694 0 1.337-0.359 1.701-0.948s0.398-1.326 0.088-1.947zM8.999 13.5c0 0.277-0.223 0.5-0.5 0.5h-1c-0.277 0-0.5-0.223-0.5-0.5v-1c0-0.277 0.223-0.5 0.5-0.5h1c0.277 0 0.5 0.223 0.5 0.5v1zM8.999 9.5c0 0.277-0.223 0.5-0.5 0.5h-1c-0.277 0-0.5-0.223-0.5-0.5v-5c0-0.276 0.223-0.5 0.5-0.5h1c0.277 0 0.5 0.224 0.5 0.5v5z"></path>
</svg>
